<svg width="30" height="30" viewBox="0 0 30 30" fill="none" xmlns="http://www.w3.org/2000/svg">
<path d="M10.1188 15.3125H20.5063M10.1188 22.6125H18.05M10.1188 18.9562H16.2063M6.46875 2.8125C6.14268 2.82065 5.8327 2.95594 5.605 3.18948C5.3773 3.42303 5.2499 3.73632 5.25 4.0625V26C5.2499 26.3262 5.3773 26.6395 5.605 26.873C5.8327 27.1066 6.14268 27.2418 6.46875 27.25H23.5313C23.8628 27.25 24.1807 27.1183 24.4151 26.8839C24.6496 26.6495 24.7813 26.3315 24.7813 26V4.03125C24.7731 3.70518 24.6378 3.3952 24.4043 3.1675C24.1707 2.9398 23.8574 2.8124 23.5313 2.8125H22.2813V8.325L19.8688 5.88125L17.4438 8.325V2.8125H6.46875Z" stroke="#D9D9D9" stroke-width="1.5" stroke-linecap="round" stroke-linejoin="round"/>
</svg>
