<svg width="30" height="30" viewBox="0 0 30 30" fill="none" xmlns="http://www.w3.org/2000/svg">
<path d="M26.6437 13.6566L16.2499 4.77532C15.9103 4.48483 15.4781 4.3252 15.0312 4.3252C14.5843 4.3252 14.152 4.48483 13.8124 4.77532L3.35616 13.6566C3.2023 13.7853 3.07547 13.9432 2.983 14.1213C2.89052 14.2993 2.83423 14.4939 2.81738 14.6938C2.80053 14.8937 2.82345 15.095 2.88481 15.286C2.94618 15.4769 3.04478 15.6539 3.17491 15.8066C3.32005 15.9829 3.5037 16.1236 3.71173 16.2179C3.91976 16.3121 4.14664 16.3575 4.37491 16.3503H5.68116V24.6566C5.68116 24.7904 5.70751 24.9228 5.75871 25.0464C5.80991 25.17 5.88495 25.2823 5.97955 25.3769C6.07415 25.4715 6.18645 25.5466 6.31006 25.5978C6.43366 25.649 6.56613 25.6753 6.69991 25.6753H11.2937C11.4274 25.6753 11.5599 25.649 11.6835 25.5978C11.8071 25.5466 11.9194 25.4715 12.014 25.3769C12.1086 25.2823 12.1837 25.17 12.2349 25.0464C12.2861 24.9228 12.3124 24.7904 12.3124 24.6566V19.5441C12.3124 19.3783 12.3783 19.2193 12.4955 19.1021C12.6127 18.9849 12.7717 18.9191 12.9374 18.9191H17.0874C17.2532 18.9191 17.4121 18.9849 17.5294 19.1021C17.6466 19.2193 17.7124 19.3783 17.7124 19.5441V24.6566C17.7124 24.7904 17.7388 24.9228 17.79 25.0464C17.8412 25.17 17.9162 25.2823 18.0108 25.3769C18.1054 25.4715 18.2177 25.5466 18.3413 25.5978C18.4649 25.649 18.5974 25.6753 18.7312 25.6753H23.3249C23.4587 25.6753 23.5912 25.649 23.7148 25.5978C23.8384 25.5466 23.9507 25.4715 24.0453 25.3769C24.1399 25.2823 24.2149 25.17 24.2661 25.0464C24.3173 24.9228 24.3437 24.7904 24.3437 24.6566V16.3503H25.6249C25.9392 16.3532 26.2466 16.259 26.5053 16.0805C26.7639 15.9021 26.9611 15.648 27.0699 15.3532C27.1786 15.0584 27.1937 14.7371 27.1129 14.4334C27.0321 14.1297 26.8595 13.8584 26.6187 13.6566H26.6437Z"  stroke-width="1.5" stroke-linecap="round" stroke-linejoin="round"/>
</svg>
