<svg width="22" height="22" viewBox="0 0 22 22" xmlns="http://www.w3.org/2000/svg">
<path d="M4.68314 3.67331C6.11564 2.42949 7.80193 1.66534 9.54449 1.36693C7.98883 2.89621 7.07481 4.96111 6.98864 7.14086C6.90248 9.32062 7.65067 11.4512 9.08075 13.0985C10.5108 14.7458 12.5152 15.7859 14.6855 16.0068C16.8557 16.2277 19.0285 15.6128 20.7612 14.2874C20.2883 15.7554 19.4822 17.0942 18.4059 18.199C17.3297 19.3038 16.0125 20.1447 14.5573 20.6559C13.1021 21.1671 11.5484 21.3348 10.0177 21.1458C8.48696 20.9569 7.02068 20.4164 5.73351 19.5666C4.44634 18.7169 3.37317 17.5809 2.59791 16.2476C1.82266 14.9142 1.36634 13.4196 1.26463 11.8806C1.16292 10.3416 1.41858 8.79994 2.01161 7.37615C2.60465 5.95236 3.51899 4.68505 4.68314 3.67331Z" stroke-linecap="round" stroke-linejoin="round"/>
</svg>
