<svg width="28" height="28" viewBox="0 0 28 28" fill="none" xmlns="http://www.w3.org/2000/svg">
<path d="M14 6.26562C12.4703 6.26562 10.9749 6.71924 9.70301 7.5691C8.4311 8.41897 7.43977 9.62691 6.85437 11.0402C6.26897 12.4535 6.11581 14.0086 6.41424 15.5089C6.71267 17.0092 7.4493 18.3874 8.53097 19.469C9.61264 20.5507 10.9908 21.2873 12.4911 21.5858C13.9914 21.8842 15.5465 21.731 16.9598 21.1456C18.3731 20.5602 19.581 19.5689 20.4309 18.297C21.2808 17.0251 21.7344 15.5297 21.7344 14C21.7313 11.9497 20.9154 9.9842 19.4656 8.5344C18.0158 7.08459 16.0503 6.26872 14 6.26562ZM14 20.3281C12.7484 20.3281 11.5249 19.957 10.4843 19.2616C9.44363 18.5663 8.63254 17.578 8.15357 16.4217C7.67461 15.2654 7.5493 13.993 7.79347 12.7654C8.03764 11.5379 8.64034 10.4103 9.52534 9.52534C10.4103 8.64034 11.5379 8.03764 12.7654 7.79347C13.993 7.5493 15.2654 7.67461 16.4217 8.15357C17.578 8.63254 18.5663 9.44363 19.2616 10.4843C19.957 11.5249 20.3281 12.7484 20.3281 14C20.3281 15.6783 19.6614 17.2879 18.4747 18.4747C17.2879 19.6614 15.6783 20.3281 14 20.3281ZM13.2969 3.21875V0.875C13.2969 0.68852 13.371 0.509677 13.5028 0.377816C13.6347 0.245954 13.8135 0.171875 14 0.171875C14.1865 0.171875 14.3653 0.245954 14.4972 0.377816C14.629 0.509677 14.7031 0.68852 14.7031 0.875V3.21875C14.7031 3.40523 14.629 3.58407 14.4972 3.71593C14.3653 3.8478 14.1865 3.92188 14 3.92188C13.8135 3.92188 13.6347 3.8478 13.5028 3.71593C13.371 3.58407 13.2969 3.40523 13.2969 3.21875ZM4.22656 5.21094C4.16193 5.1463 4.11066 5.06957 4.07568 4.98512C4.0407 4.90067 4.02269 4.81016 4.02269 4.71875C4.02269 4.62734 4.0407 4.53683 4.07568 4.45238C4.11066 4.36793 4.16193 4.2912 4.22656 4.22656C4.2912 4.16193 4.36793 4.11066 4.45238 4.07568C4.53683 4.0407 4.62734 4.02269 4.71875 4.02269C4.81016 4.02269 4.90067 4.0407 4.98512 4.07568C5.06957 4.11066 5.1463 4.16193 5.21094 4.22656L6.875 5.87891C7.00458 6.01232 7.07706 6.19097 7.07706 6.37695C7.07706 6.56293 7.00458 6.74159 6.875 6.875C6.80875 6.94043 6.72997 6.9918 6.64338 7.02603C6.55679 7.06026 6.46417 7.07665 6.37109 7.07422C6.27988 7.07574 6.1893 7.05889 6.10474 7.02466C6.02018 6.99043 5.94338 6.93954 5.87891 6.875L4.22656 5.21094ZM3.92188 14C3.92188 14.1865 3.8478 14.3653 3.71593 14.4972C3.58407 14.629 3.40523 14.7031 3.21875 14.7031H0.875C0.68852 14.7031 0.509677 14.629 0.377816 14.4972C0.245954 14.3653 0.171875 14.1865 0.171875 14C0.171875 13.8135 0.245954 13.6347 0.377816 13.5028C0.509677 13.371 0.68852 13.2969 0.875 13.2969H3.21875C3.40523 13.2969 3.58407 13.371 3.71593 13.5028C3.8478 13.6347 3.92188 13.8135 3.92188 14ZM6.875 21.125C7.00458 21.2584 7.07706 21.4371 7.07706 21.623C7.07706 21.809 7.00458 21.9877 6.875 22.1211L5.21094 23.7734C5.1463 23.8381 5.06957 23.8893 4.98512 23.9243C4.90067 23.9593 4.81016 23.9773 4.71875 23.9773C4.62734 23.9773 4.53683 23.9593 4.45238 23.9243C4.36793 23.8893 4.2912 23.8381 4.22656 23.7734C4.16193 23.7088 4.11066 23.6321 4.07568 23.5476C4.0407 23.4632 4.02269 23.3727 4.02269 23.2812C4.02269 23.1898 4.0407 23.0993 4.07568 23.0149C4.11066 22.9304 4.16193 22.8537 4.22656 22.7891L5.87891 21.125C6.01232 20.9954 6.19097 20.9229 6.37695 20.9229C6.56293 20.9229 6.74159 20.9954 6.875 21.125ZM14.7031 24.7812V27.125C14.7031 27.3115 14.629 27.4903 14.4972 27.6222C14.3653 27.754 14.1865 27.8281 14 27.8281C13.8135 27.8281 13.6347 27.754 13.5028 27.6222C13.371 27.4903 13.2969 27.3115 13.2969 27.125V24.7812C13.2969 24.5948 13.371 24.4159 13.5028 24.2841C13.6347 24.1522 13.8135 24.0781 14 24.0781C14.1865 24.0781 14.3653 24.1522 14.4972 24.2841C14.629 24.4159 14.7031 24.5948 14.7031 24.7812ZM23.7734 22.7891C23.8381 22.8537 23.8893 22.9304 23.9243 23.0149C23.9593 23.0993 23.9773 23.1898 23.9773 23.2812C23.9773 23.3727 23.9593 23.4632 23.9243 23.5476C23.8893 23.6321 23.8381 23.7088 23.7734 23.7734C23.7088 23.8381 23.6321 23.8893 23.5476 23.9243C23.4632 23.9593 23.3727 23.9773 23.2812 23.9773C23.1898 23.9773 23.0993 23.9593 23.0149 23.9243C22.9304 23.8893 22.8537 23.8381 22.7891 23.7734L21.125 22.1211C20.9929 21.989 20.9187 21.8099 20.9187 21.623C20.9187 21.4362 20.9929 21.2571 21.125 21.125C21.2571 20.9929 21.4362 20.9187 21.623 20.9187C21.8099 20.9187 21.989 20.9929 22.1211 21.125L23.7734 22.7891ZM27.8281 14C27.8281 14.1865 27.754 14.3653 27.6222 14.4972C27.4903 14.629 27.3115 14.7031 27.125 14.7031H24.7812C24.5948 14.7031 24.4159 14.629 24.2841 14.4972C24.1522 14.3653 24.0781 14.1865 24.0781 14C24.0781 13.8135 24.1522 13.6347 24.2841 13.5028C24.4159 13.371 24.5948 13.2969 24.7812 13.2969H27.125C27.3115 13.2969 27.4903 13.371 27.6222 13.5028C27.754 13.6347 27.8281 13.8135 27.8281 14ZM23.7734 4.22656C23.8401 4.29004 23.8932 4.3664 23.9294 4.45101C23.9657 4.53561 23.9844 4.6267 23.9844 4.71875C23.9844 4.8108 23.9657 4.90189 23.9294 4.98649C23.8932 5.0711 23.8401 5.14746 23.7734 5.21094L22.1211 6.875C22.0566 6.93954 21.9798 6.99043 21.8953 7.02466C21.8107 7.05889 21.7201 7.07574 21.6289 7.07422C21.5358 7.07665 21.4432 7.06026 21.3566 7.02603C21.27 6.9918 21.1913 6.94043 21.125 6.875C20.9954 6.74159 20.9229 6.56293 20.9229 6.37695C20.9229 6.19097 20.9954 6.01232 21.125 5.87891L22.7891 4.22656C22.8525 4.15991 22.9289 4.10684 23.0135 4.07058C23.0981 4.03432 23.1892 4.01562 23.2812 4.01562C23.3733 4.01562 23.4644 4.03432 23.549 4.07058C23.6336 4.10684 23.71 4.15991 23.7734 4.22656Z" fill="#303030"/>
</svg>
